# xmcd
#
# Track frame offsets:
# 150
# 15499
# 26828
# 41515
# 53014
# 65822
# 82546
# 94452
# 110146
# 124860
#
# Disc length: 1838 seconds
#
#
# Revision: 0
# Processed by: cddbd v1.5.2PL0 Copyright (c) Steve Scherf et al.
# Submitted via: FreeRIP 2.70 
#
DISCID=80072c0a
DTITLE=Jake McVey - Unknown Highway
DYEAR=2006
DGENRE=Country
TTITLE0=Let Me Walk In His Shoes
TTITLE1=One Of Those Days
TTITLE2=Unknown Highway
TTITLE3=I Like That
TTITLE4=Love Being Loved
TTITLE5=That's Just Life
TTITLE6=Next To My Ex Wife's Heart
TTITLE7=Candle Too Pretty To Burn
TTITLE8=Can't Give Up On Horses
TTITLE9=Most Unwanted Man
EXTD=
EXTT0=
EXTT1=
EXTT2=
EXTT3=
EXTT4=
EXTT5=
EXTT6=
EXTT7=
EXTT8=
EXTT9=
PLAYORDER=
